<?xml version="1.0" encoding="UTF-8"?>
<svg id="Layer_1" data-name="Layer 1" xmlns="http://www.w3.org/2000/svg" viewBox="0 0 1112 1112">
  <defs>
    <style>
      .cls-1 {
        fill: #c675b0;
      }

      .cls-2 {
        fill: #412a4c;
      }
    </style>
  </defs>
  <title>doggl_logo_full</title>
  <circle class="cls-1" cx="556" cy="556" r="556"/>
  <g id="Dog">
    <rect class="cls-2" x="278.2" y="280.42" width="111.12" height="55.56"/>
    <rect class="cls-2" x="444.88" y="280.42" width="222.24" height="55.56"/>
    <rect class="cls-2" x="722.68" y="280.42" width="111.12" height="55.56"/>
    <rect class="cls-2" x="222.64" y="335.98" width="55.56" height="55.56"/>
    <rect class="cls-2" x="389.32" y="335.98" width="55.56" height="55.56"/>
    <rect class="cls-2" x="667.12" y="335.98" width="55.56" height="55.56"/>
    <rect class="cls-2" x="833.8" y="335.98" width="55.56" height="55.56"/>
    <rect class="cls-2" x="167.08" y="391.54" width="55.56" height="222.24"/>
    <rect class="cls-2" x="889.36" y="391.54" width="55.56" height="222.24"/>
    <polygon class="cls-2" points="833.8 558.22 833.8 613.78 778.24 613.78 778.24 724.9 722.68 724.9 722.68 447.1 778.24 447.1 778.24 558.22 833.8 558.22"/>
    <rect class="cls-2" x="444.88" y="502.66" width="55.56" height="55.56"/>
    <rect class="cls-2" x="611.56" y="502.66" width="55.56" height="55.56"/>
    <polygon class="cls-2" points="389.32 447.1 389.32 724.9 333.76 724.9 333.76 613.78 278.2 613.78 278.2 558.22 333.76 558.22 333.76 447.1 389.32 447.1"/>
    <rect class="cls-2" x="222.64" y="613.78" width="55.56" height="55.56"/>
    <rect class="cls-2" x="833.8" y="613.78" width="55.56" height="55.56"/>
    <rect class="cls-2" x="500.44" y="669.34" width="111.12" height="55.56"/>
    <rect class="cls-2" x="389.32" y="724.9" width="55.56" height="55.56"/>
    <rect class="cls-2" x="667.12" y="724.9" width="55.56" height="55.56"/>
    <rect class="cls-2" x="444.88" y="780.46" width="55.56" height="55.56"/>
    <rect class="cls-2" x="611.56" y="780.46" width="55.56" height="55.56"/>
    <rect class="cls-2" x="500.44" y="836.02" width="111.12" height="55.56"/>
  </g>
</svg>
